<svg xmlns="http://www.w3.org/2000/svg" width="289" height="289" viewBox="0 0 289 289">
  <g fill="#FFF">
    <path d="M144.2,0 C64.7,0 0,64.7 0,144.2 C0,223.7 64.7,288.4 144.2,288.4 C223.7,288.4 288.4,223.7 288.4,144.2 C288.5,64.7 223.7,0 144.2,0 Z M144.2,283.4 C67.4,283.4 5,221 5,144.2 C5,67.4 67.4,5 144.2,5 C221,5 283.4,67.5 283.4,144.2 C283.5,221 221,283.4 144.2,283.4 Z"/>
    <path d="M70.1,150.5 C69.6,149.6 69,148.8 68.3,148.2 C67.6,147.6 66.9,147.1 66.1,146.8 C65.3,146.5 64.6,146.3 63.9,146.2 L63.3,149.6 C63.7,149.7 64.2,149.8 64.6,150 C65.1,150.2 65.5,150.5 65.9,150.8 C66.3,151.2 66.7,151.6 67,152.2 C67.3,152.8 67.5,153.4 67.6,154.2 C67.7,154.9 67.7,155.6 67.5,156.3 C67.3,157 67,157.6 66.6,158.2 C66.2,158.8 65.6,159.3 64.9,159.7 C64.2,160.1 63.4,160.4 62.4,160.5 C61.4,160.6 60.5,160.6 59.7,160.4 C58.9,160.2 58.2,159.8 57.7,159.4 C57.1,158.9 56.7,158.4 56.4,157.8 C56.1,157.2 55.9,156.5 55.8,155.9 C55.7,155.1 55.7,154.4 55.9,153.8 C56,153.2 56.3,152.7 56.5,152.2 C56.8,151.8 57.1,151.4 57.5,151.1 C57.9,150.8 58.3,150.6 58.7,150.4 L57.2,147.3 C56.5,147.6 55.8,148 55.2,148.5 C54.5,149 54,149.6 53.5,150.4 C53,151.1 52.7,152 52.5,153 C52.3,154 52.2,155.1 52.4,156.3 C52.6,157.5 52.9,158.6 53.5,159.7 C54.1,160.7 54.8,161.6 55.7,162.4 C56.6,163.1 57.7,163.7 58.9,164 C60.1,164.3 61.4,164.4 62.9,164.2 C64.3,164 65.6,163.6 66.7,163 C67.8,162.4 68.7,161.6 69.4,160.6 C70.1,159.7 70.6,158.6 70.9,157.4 C71.2,156.2 71.3,155 71.1,153.8 C71,152.5 70.6,151.4 70.1,150.5 Z M62.1,128.9 C61.3,128.1 60.2,127.7 59,127.5 C58.2,127.4 57.5,127.5 56.8,127.7 C56.1,127.9 55.5,128.2 54.9,128.7 C54.4,129.1 53.9,129.7 53.5,130.4 C53.1,131.1 52.9,131.8 52.8,132.7 L52,139.7 L69.9,141.6 L70.3,138.1 L63.4,137.4 L63.6,135.6 L70.9,132.8 L71.3,128.9 L63.5,131.9 C63.4,130.6 62.9,129.6 62.1,128.9 Z M60.7,134.1 L60.4,136.9 L55.4,136.4 L55.7,133.6 C55.8,132.7 56.1,132 56.6,131.6 C57.1,131.2 57.7,131 58.5,131.1 C59.2,131.2 59.8,131.5 60.2,132 C60.7,132.5 60.8,133.2 60.7,134.1 Z"/>
    <polygon points="70.4 120.4 66.4 119.1 68.6 112.4 65.6 111.4 63.4 118.1 59.5 116.8 61.9 109.4 58.8 108.4 55.3 119.1 72.4 124.7 75.9 114 72.8 113"/>
    <path d="M64.9,96.1 L76.8,111.3 L78.7,108.1 L75.9,104.7 L79.7,98.4 L84,99.2 L86,95.9 L67,92.5 L64.9,96.1 Z M76.4,97.8 L73.8,102.1 L69.2,96.5 L76.4,97.8 Z"/>
    <polygon points="85.6 75 83.1 72.7 73 83.7 75.4 85.9 79.3 81.8 90.1 91.8 92.5 89.2 81.7 79.2"/>
    <rect width="18.001" height="3.6" x="86.445" y="72.748" transform="rotate(-127.545 95.446 74.548)"/>
    <polygon points="108.4 56.1 110.4 70.2 100.1 60.5 96.7 62.2 110.9 75.2 114.1 73.5 111.7 54.4"/>
    <polygon points="134.3 66.5 133.4 63.3 125.9 65.4 124.8 61.3 131.6 59.5 130.8 56.5 124 58.3 122.9 54.3 130.4 52.3 129.6 49.1 118.7 52 123.4 69.5"/>
    <path d="M160.7,64.3 C161.4,63.8 162,63.1 162.5,62.4 C163,61.7 163.3,61 163.5,60.3 L160.3,59.1 C160.2,59.5 159.9,59.9 159.7,60.3 C159.4,60.7 159.1,61.1 158.6,61.4 C158.2,61.7 157.7,62 157.1,62.2 C156.5,62.4 155.8,62.5 155.1,62.4 C154.4,62.4 153.7,62.2 153,61.9 C152.3,61.6 151.8,61.2 151.3,60.6 C150.8,60.1 150.4,59.4 150.2,58.7 C150,58 149.8,57.1 149.9,56.1 C150,55.1 150.2,54.2 150.6,53.5 C151,52.8 151.4,52.2 152,51.7 C152.6,51.2 153.2,50.9 153.9,50.7 C154.6,50.5 155.3,50.4 155.9,50.5 C156.7,50.6 157.3,50.7 157.9,51 C158.5,51.3 158.9,51.6 159.3,51.9 C159.7,52.3 160,52.7 160.2,53.1 C160.4,53.6 160.5,54 160.6,54.4 L164,53.6 C163.9,52.9 163.6,52.1 163.2,51.4 C162.8,50.7 162.3,50 161.7,49.4 C161.1,48.8 160.3,48.3 159.4,47.9 C158.5,47.5 157.4,47.2 156.1,47.2 C154.9,47.1 153.7,47.3 152.6,47.6 C151.5,48 150.4,48.5 149.5,49.3 C148.6,50.1 147.9,51 147.3,52.1 C146.7,53.2 146.4,54.5 146.3,55.9 C146.2,57.3 146.4,58.6 146.8,59.8 C147.2,61 147.8,62 148.6,62.9 C149.4,63.8 150.3,64.5 151.4,65 C152.5,65.5 153.7,65.8 154.9,65.9 C156.2,66 157.3,65.9 158.3,65.6 C159.1,65.3 160,64.8 160.7,64.3 Z"/>
    <polygon points="179 67.4 171.3 65.1 175.6 51 172.2 50 167 67.3 178.1 70.6"/>
    <path d="M184.9,73.9 C185.5,74.6 186.2,75.1 187.1,75.6 C187.9,76.1 188.8,76.4 189.7,76.5 C190.6,76.7 191.4,76.6 192.3,76.4 C193.1,76.2 193.9,75.8 194.6,75.2 C195.3,74.6 196,73.9 196.5,72.9 L202.1,62.7 L199,61 L193.5,71 C192.9,72 192.2,72.7 191.4,72.9 C190.6,73.1 189.7,73 188.8,72.5 C187.9,72 187.3,71.3 187.1,70.5 C186.9,69.7 187,68.7 187.6,67.7 L193.1,57.7 L190,56 L184.4,66.2 C183.9,67.2 183.6,68.1 183.5,69 C183.4,69.9 183.5,70.8 183.8,71.6 C183.9,72.5 184.3,73.3 184.9,73.9 Z M202.5,86.3 C203.1,86.9 203.8,87.3 204.5,87.6 C205.2,87.9 205.9,88 206.5,88 C207.2,88 207.8,87.8 208.4,87.6 C209,87.3 209.6,86.9 210,86.4 C210.4,86 210.7,85.5 210.8,85.1 C211,84.6 211.1,84.2 211.1,83.7 C211.1,83.2 211.1,82.8 211,82.3 C210.9,81.9 210.7,81.4 210.4,81.1 C211.1,81.4 211.9,81.5 212.8,81.3 C213.6,81.1 214.4,80.7 215,80 C215.5,79.5 215.8,78.9 216,78.3 C216.2,77.7 216.3,77.1 216.2,76.4 C216.1,75.8 215.9,75.1 215.6,74.5 C215.3,73.9 214.8,73.3 214.1,72.7 L209.3,68.4 L197.3,81.9 L202.5,86.3 Z M210,72.7 L211.8,74.3 C212.4,74.9 212.8,75.5 212.9,76 C213,76.6 212.8,77.1 212.3,77.7 C211.8,78.2 211.3,78.5 210.7,78.5 C210.1,78.5 209.5,78.2 208.9,77.7 L207,76 L210,72.7 Z M207.2,80.1 C207.9,80.7 208.2,81.3 208.2,81.9 C208.2,82.5 208,83.1 207.5,83.6 C207,84.1 206.5,84.4 205.8,84.4 C205.2,84.4 204.5,84.1 203.9,83.5 L201.8,81.6 L205,78.1 L207.2,80.1 Z"/>
  </g>
</svg>
