<svg xmlns="http://www.w3.org/2000/svg" width="289" height="289" viewBox="0 0 289 289">
  <g fill="#FFF">
    <path d="M144.2,0 C64.7,0 0,64.7 0,144.2 C0,223.7 64.7,288.4 144.2,288.4 C223.7,288.4 288.4,223.7 288.4,144.2 C288.5,64.7 223.7,0 144.2,0 Z M144.2,283.4 C67.4,283.4 5,221 5,144.2 C5,67.4 67.4,5 144.2,5 C221,5 283.4,67.5 283.4,144.2 C283.5,221 221,283.4 144.2,283.4 Z"/>
    <path d="M70.1 150.5C69.6 149.6 69 148.8 68.3 148.2 67.6 147.6 66.9 147.1 66.1 146.8 65.3 146.5 64.6 146.3 63.9 146.2L63.3 149.6C63.7 149.7 64.2 149.8 64.6 150 65.1 150.2 65.5 150.5 65.9 150.8 66.3 151.2 66.7 151.6 67 152.2 67.3 152.8 67.5 153.4 67.6 154.2 67.7 154.9 67.7 155.6 67.5 156.3 67.3 157 67 157.6 66.6 158.2 66.2 158.8 65.6 159.3 64.9 159.7 64.2 160.1 63.4 160.4 62.4 160.5 61.4 160.6 60.5 160.6 59.7 160.4 58.9 160.2 58.2 159.8 57.7 159.4 57.1 158.9 56.7 158.4 56.4 157.8 56.1 157.2 55.9 156.5 55.8 155.9 55.7 155.1 55.7 154.4 55.9 153.8 56 153.2 56.3 152.7 56.5 152.2 56.8 151.8 57.1 151.4 57.5 151.1 57.9 150.8 58.3 150.6 58.7 150.4L57.2 147.3C56.5 147.6 55.8 148 55.2 148.5 54.5 149 54 149.6 53.5 150.4 53 151.1 52.7 152 52.5 153 52.3 154 52.2 155.1 52.4 156.3 52.6 157.5 52.9 158.6 53.5 159.7 54.1 160.7 54.8 161.6 55.7 162.4 56.6 163.1 57.7 163.7 58.9 164 60.1 164.3 61.4 164.4 62.9 164.2 64.3 164 65.6 163.6 66.7 163 67.8 162.4 68.7 161.6 69.4 160.6 70.1 159.7 70.6 158.6 70.9 157.4 71.2 156.2 71.3 155 71.1 153.8 71 152.5 70.6 151.4 70.1 150.5zM62.1 128.9C61.3 128.1 60.2 127.7 59 127.5 58.2 127.4 57.5 127.5 56.8 127.7 56.1 127.9 55.5 128.2 54.9 128.7 54.4 129.1 53.9 129.7 53.5 130.4 53.1 131.1 52.9 131.8 52.8 132.7L52 139.7 69.9 141.6 70.3 138.1 63.4 137.4 63.6 135.6 70.9 132.8 71.3 128.9 63.5 131.9C63.4 130.6 62.9 129.6 62.1 128.9zM60.7 134.1L60.4 136.9 55.4 136.4 55.7 133.6C55.8 132.7 56.1 132 56.6 131.6 57.1 131.2 57.7 131 58.5 131.1 59.2 131.2 59.8 131.5 60.2 132 60.7 132.5 60.8 133.2 60.7 134.1z"/>
    <polygon points="70.4 120.4 66.4 119.1 68.6 112.4 65.6 111.4 63.4 118.1 59.5 116.8 61.9 109.4 58.8 108.4 55.3 119.1 72.4 124.7 75.9 114 72.8 113"/>
    <path d="M64.9,96.1 L76.8,111.3 L78.7,108.1 L75.9,104.7 L79.7,98.4 L84,99.2 L86,95.9 L67,92.5 L64.9,96.1 Z M76.4,97.8 L73.8,102.1 L69.2,96.5 L76.4,97.8 Z"/>
    <polygon points="85.6 75 83.1 72.7 73 83.7 75.4 85.9 79.3 81.8 90.1 91.8 92.5 89.2 81.7 79.2"/>
    <rect width="18.001" height="3.6" x="86.446" y="72.748" transform="rotate(-127.545 95.446 74.548)"/>
    <polygon points="108.4 56.1 110.4 70.2 100.1 60.5 96.7 62.2 110.9 75.2 114.1 73.5 111.7 54.4"/>
    <polygon points="134.3 66.5 133.4 63.3 125.9 65.4 124.8 61.3 131.6 59.5 130.8 56.5 124 58.3 122.9 54.3 130.4 52.3 129.6 49.1 118.7 52 123.4 69.5"/>
    <path d="M160.7,64.3 C161.4,63.8 162,63.1 162.5,62.4 C163,61.7 163.3,61 163.5,60.3 L160.3,59.1 C160.2,59.5 159.9,59.9 159.7,60.3 C159.4,60.7 159.1,61.1 158.6,61.4 C158.2,61.7 157.7,62 157.1,62.2 C156.5,62.4 155.8,62.5 155.1,62.4 C154.4,62.4 153.7,62.2 153,61.9 C152.3,61.6 151.8,61.2 151.3,60.6 C150.8,60.1 150.4,59.4 150.2,58.7 C150,58 149.8,57.1 149.9,56.1 C150,55.1 150.2,54.2 150.6,53.5 C151,52.8 151.4,52.2 152,51.7 C152.6,51.2 153.2,50.9 153.9,50.7 C154.6,50.5 155.3,50.4 155.9,50.5 C156.7,50.6 157.3,50.7 157.9,51 C158.5,51.3 158.9,51.6 159.3,51.9 C159.7,52.3 160,52.7 160.2,53.1 C160.4,53.6 160.5,54 160.6,54.4 L164,53.6 C163.9,52.9 163.6,52.1 163.2,51.4 C162.8,50.7 162.3,50 161.7,49.4 C161.1,48.8 160.3,48.3 159.4,47.9 C158.5,47.5 157.4,47.2 156.1,47.2 C154.9,47.1 153.7,47.3 152.6,47.6 C151.5,48 150.4,48.5 149.5,49.3 C148.6,50.1 147.9,51 147.3,52.1 C146.7,53.2 146.4,54.5 146.3,55.9 C146.2,57.3 146.4,58.6 146.8,59.8 C147.2,61 147.8,62 148.6,62.9 C149.4,63.8 150.3,64.5 151.4,65 C152.5,65.5 153.7,65.8 154.9,65.9 C156.2,66 157.3,65.9 158.3,65.6 C159.1,65.3 160,64.8 160.7,64.3 Z"/>
    <polygon points="179 67.4 171.3 65.1 175.6 51 172.2 50 167 67.3 178.1 70.6"/>
    <path d="M184.9 73.9C185.5 74.6 186.2 75.1 187.1 75.6 187.9 76.1 188.8 76.4 189.7 76.5 190.6 76.7 191.4 76.6 192.3 76.4 193.1 76.2 193.9 75.8 194.6 75.2 195.3 74.6 196 73.9 196.5 72.9L202.1 62.7 199 61 193.5 71C192.9 72 192.2 72.7 191.4 72.9 190.6 73.1 189.7 73 188.8 72.5 187.9 72 187.3 71.3 187.1 70.5 186.9 69.7 187 68.7 187.6 67.7L193.1 57.7 190 56 184.4 66.2C183.9 67.2 183.6 68.1 183.5 69 183.4 69.9 183.5 70.8 183.8 71.6 183.9 72.5 184.3 73.3 184.9 73.9zM202.5 86.3C203.1 86.9 203.8 87.3 204.5 87.6 205.2 87.9 205.9 88 206.5 88 207.2 88 207.8 87.8 208.4 87.6 209 87.3 209.6 86.9 210 86.4 210.4 86 210.7 85.5 210.8 85.1 211 84.6 211.1 84.2 211.1 83.7 211.1 83.2 211.1 82.8 211 82.3 210.9 81.9 210.7 81.4 210.4 81.1 211.1 81.4 211.9 81.5 212.8 81.3 213.6 81.1 214.4 80.7 215 80 215.5 79.5 215.8 78.9 216 78.3 216.2 77.7 216.3 77.1 216.2 76.4 216.1 75.8 215.9 75.1 215.6 74.5 215.3 73.9 214.8 73.3 214.1 72.7L209.3 68.4 197.3 81.9 202.5 86.3zM210 72.7L211.8 74.3C212.4 74.9 212.8 75.5 212.9 76 213 76.6 212.8 77.1 212.3 77.7 211.8 78.2 211.3 78.5 210.7 78.5 210.1 78.5 209.5 78.2 208.9 77.7L207 76 210 72.7zM207.2 80.1C207.9 80.7 208.2 81.3 208.2 81.9 208.2 82.5 208 83.1 207.5 83.6 207 84.1 206.5 84.4 205.8 84.4 205.2 84.4 204.5 84.1 203.9 83.5L201.8 81.6 205 78.1 207.2 80.1z"/>
    <polygon points="219.3 180.6 230 187.3 216.6 185 215 187.5 223 198.6 212.3 191.9 210.4 194.8 225.7 204.4 228.2 200.4 220 188.9 233.9 191.3 236.4 187.4 221.1 177.8"/>
    <path d="M213.7,204.5 C212.7,203.4 211.7,202.6 210.6,202 C209.5,201.5 208.3,201.2 207.1,201.1 C205.9,201 204.8,201.2 203.6,201.6 C202.5,202 201.4,202.6 200.5,203.4 C199.6,204.2 198.8,205.1 198.3,206.2 C197.7,207.3 197.4,208.4 197.3,209.6 C197.2,210.8 197.3,212 197.7,213.2 C198.1,214.4 198.7,215.6 199.7,216.7 C200.7,217.8 201.7,218.6 202.9,219.2 C204,219.7 205.2,220 206.4,220.1 C207.6,220.2 208.7,220 209.9,219.6 C211,219.2 212.1,218.6 213,217.8 C213.9,217 214.7,216.1 215.2,215 C215.8,213.9 216.1,212.8 216.2,211.7 C216.3,210.5 216.2,209.3 215.8,208.1 C215.3,206.7 214.7,205.6 213.7,204.5 Z M212.6,211.5 C212.5,212.2 212.3,212.9 212,213.5 C211.7,214.1 211.2,214.7 210.7,215.1 C210.2,215.6 209.6,215.9 208.9,216.2 C208.2,216.5 207.5,216.6 206.8,216.6 C206.1,216.6 205.3,216.4 204.6,216 C203.9,215.6 203.2,215.1 202.5,214.3 C201.8,213.5 201.4,212.8 201.1,212 C200.8,211.2 200.8,210.5 200.8,209.7 C200.9,209 201.1,208.3 201.4,207.7 C201.8,207.1 202.2,206.5 202.7,206.1 C203.2,205.6 203.8,205.3 204.5,205 C205.2,204.7 205.9,204.6 206.6,204.7 C207.3,204.7 208.1,204.9 208.8,205.3 C209.5,205.7 210.2,206.2 210.9,207 C211.6,207.8 212,208.5 212.3,209.3 C212.6,210 212.7,210.7 212.6,211.5 Z"/>
    <polygon points="187.2 213.4 190.4 220.2 183.3 223.5 180.1 216.8 176.9 218.3 184.6 234.6 187.8 233.1 184.7 226.5 191.9 223.2 194.9 229.7 198.1 228.2 190.4 211.9"/>
    <path d="M173.4,225 C172.7,224 171.8,223.1 170.8,222.5 C169.8,221.9 168.7,221.4 167.5,221.2 C166.3,221 165.1,221 163.9,221.2 C162.7,221.4 161.6,221.9 160.6,222.5 C159.6,223.1 158.7,223.9 158,224.9 C157.3,225.9 156.8,227 156.6,228.2 C156.3,229.4 156.3,230.8 156.6,232.2 C156.9,233.6 157.4,234.9 158.1,235.9 C158.8,236.9 159.7,237.8 160.7,238.4 C161.7,239 162.8,239.5 164,239.7 C165.2,239.9 166.4,239.9 167.6,239.7 C168.8,239.5 169.9,239 170.9,238.4 C171.9,237.8 172.8,237 173.4,236 C174.1,235 174.6,233.9 174.8,232.7 C175.1,231.5 175.1,230.1 174.8,228.7 C174.6,227.3 174.1,226.1 173.4,225 Z M171.4,232.2 C171.2,233 170.9,233.7 170.5,234.3 C170.1,234.9 169.5,235.4 168.9,235.7 C168.3,236.1 167.6,236.3 167,236.5 C166.3,236.6 165.6,236.6 164.9,236.5 C164.2,236.4 163.5,236.1 162.9,235.8 C162.3,235.4 161.7,234.9 161.3,234.2 C160.8,233.5 160.5,232.7 160.3,231.7 C160.1,230.7 160.1,229.8 160.3,229 C160.5,228.2 160.8,227.5 161.2,226.9 C161.6,226.3 162.2,225.8 162.8,225.5 C163.4,225.1 164.1,224.9 164.8,224.7 C165.5,224.6 166.2,224.6 166.9,224.7 C167.6,224.8 168.3,225.1 168.9,225.4 C169.5,225.8 170.1,226.3 170.5,227 C171,227.7 171.3,228.5 171.5,229.5 C171.5,230.5 171.6,231.4 171.4,232.2 Z"/>
    <polygon points="139.2 226.1 147.2 226.5 146.6 241.1 150.1 241.3 150.9 223.3 139.3 222.8"/>
    <polygon points="123.8 222.6 131.3 224.5 130.3 228.6 123.5 226.9 122.7 229.9 129.6 231.6 128.6 235.6 121 233.7 120.3 237 131.2 239.6 135.5 222.1 124.5 219.4"/>
  </g>
</svg>
