<svg xmlns="http://www.w3.org/2000/svg" width="115" height="115" viewBox="0 0 115 115">
  <g fill="none" fill-rule="evenodd">
    <circle cx="57.5" cy="57.5" r="57.5" fill="#FFF"/>
    <path fill="#000" d="M83.8479217,80.9780112 C85.077085,81.0670478 86.1017433,81.5863431 86.9206415,82.5369092 C87.7187,83.4634455 88.0736019,84.5459222 87.9873558,85.7835804 C87.8994777,87.0226299 87.3833823,88.0555294 86.4398229,88.8803819 C85.4947569,89.7066257 84.4083328,90.0745337 83.1784163,89.9875207 C81.9498808,89.8991166 80.9362699,89.3927213 80.1380859,88.466185 C79.3193133,87.5154925 78.9534894,86.4203686 79.0389823,85.1819515 C79.1268603,83.9429021 79.6414492,82.9112673 80.5865152,82.08515 C81.5300747,81.260171 82.6180053,80.8909983 83.8479217,80.9780112 M59.0273864,26.0360274 C66.8821801,26.4088678 73.3437296,29.5357697 78.4100263,35.4172391 C83.0886551,40.8490992 85.2731786,47.2530257 84.9644755,54.6307892 C84.6369413,61.9381076 81.9292922,68.2750038 76.842658,73.6431219 L79.5267056,76.7592737 L75.5020152,80.2777339 L69.3948654,73.1119381 L71.1836864,71.5481077 C76.1029757,67.2477955 78.8436418,61.9349458 79.404304,55.6084203 C80.0149311,49.2395267 78.3053258,43.7144564 74.2732286,39.0335889 C70.2420101,34.3533538 65.0651125,31.8593194 58.7449212,31.548071 C52.4239766,31.2388462 46.7908663,33.2450768 41.8477244,37.5662569 C36.9524134,41.8458277 34.1895266,47.1570332 33.5575577,53.5011383 C32.9715365,59.8497965 34.6630639,65.3025246 38.6337721,69.8607139 L38.628876,69.9307795 L38.6935292,70.0057776 L34.556857,73.6221275 L34.4922038,73.5470029 L34.4972254,73.4768108 C29.5563433,67.7923854 27.4338366,61.0052477 28.1284501,53.1138801 C28.843401,45.2491981 32.2210577,38.6768105 38.2582816,33.3989936 C44.29538,28.1213032 51.2184149,25.6678664 59.0273864,26.0360274"/>
  </g>
</svg>
