<?xml version="1.0" encoding="UTF-8"?>
<svg width="115px" height="115px" viewBox="0 0 115 115" version="1.1" xmlns="http://www.w3.org/2000/svg" xmlns:xlink="http://www.w3.org/1999/xlink">
    <!-- Generator: Sketch 48.2 (47327) - http://www.bohemiancoding.com/sketch -->
    <title>group-1</title>
    <desc>Created with Sketch.</desc>
    <defs></defs>
    <g id="Desktop-HD-Copy-16" stroke="none" stroke-width="1" fill="none" fill-rule="evenodd" transform="translate(-75.000000, -1050.000000)">
        <g id="group-1" transform="translate(75.000000, 1050.000000)">
            <circle id="Oval" fill="#FFFFFF" cx="57.5" cy="57.5" r="57.5"></circle>
            <path d="M62.9691208,28 L66.4881932,28 C67.088,28.0715768 67.6927536,28.0641079 68.2937971,28.126971 C71.2136812,28.3578838 74.1292367,28.8751037 76.892058,29.8746888 C78.7409469,30.4952282 80.5267633,31.3280083 82.1431498,32.4290456 C83.7552077,33.5226141 85.1910338,34.8850622 86.3424155,36.4641079 C87.4882319,38.026971 88.3508406,39.7921162 88.9364251,41.6412863 C89.5832271,43.6684647 89.9016812,45.7914938 89.9944348,47.9157676 C90.0030918,48.8082988 89.9987633,49.7014523 89.9969082,50.5946058 C89.7637874,58.5502075 86.7795942,66.360166 81.8055266,72.5313278 C80.4531787,74.2242739 78.9276908,75.7684647 77.3211981,77.2161826 C75.6040193,78.7628631 73.7421449,80.1427386 71.7868986,81.3670124 C68.9022609,83.1676349 65.8154203,84.6365145 62.6073816,85.7506224 C59.5050821,86.8186722 56.2834396,87.5755187 53.0098551,87.8338174 C49.2310725,88.1412863 45.3558261,87.8070539 41.7792464,86.4838174 C39.5989179,85.6908714 37.5540097,84.5630705 35.6136039,83.2952282 C34.7874783,82.7780083 34.0275169,82.1630705 33.2650821,81.5568465 C31.4149565,80.053112 29.660058,78.3912863 28.2941063,76.4201245 C27.1544734,74.7775934 26.3196908,72.8885892 26.0766763,70.8887967 C26.0550338,70.6665975 26.0321546,70.4443983 26,70.2240664 L26,68.6425311 C26.077913,67.8713693 26.195401,67.1039419 26.3914203,66.3539419 C26.946087,64.1910788 27.9008309,62.1607884 28.9031884,60.1778008 C30.5276135,56.9848548 32.3424928,53.8821577 33.6985507,50.5578838 C35.2487729,47.5342324 36.3642899,44.3082988 37.8996715,41.2778008 C38.8185507,39.4715768 39.9074783,37.7406639 41.2653913,36.2344398 C42.6449469,34.6834025 44.2916329,33.3844398 46.0755942,32.3363071 C48.135343,31.0846473 50.4040966,30.2176349 52.7148986,29.5659751 C55.5797488,28.7680498 58.5324058,28.3062241 61.4955749,28.0995851 C61.985314,28.0497925 62.4806184,28.0721992 62.9691208,28 Z" id="Shape" fill="#000000" fill-rule="nonzero"></path>
        </g>
    </g>
</svg>