<svg xmlns="http://www.w3.org/2000/svg" width="115" height="115" viewBox="0 0 115 115">
  <g fill="none" fill-rule="evenodd">
    <circle cx="57.5" cy="57.5" r="57.5" fill="#FFF"/>
    <path fill="#1A1919" d="M55.1380365,79.4326152 C44.0100968,78.2418195 35.3656737,68.7313213 35.5255289,57.2315957 C35.6897046,45.3748476 45.3501444,35.6984603 57.1873516,35.5347349 C69.4674009,35.3630757 79.4770741,45.2825267 79.4770741,57.5446213 L79.4770741,82.3717386 C79.4770741,83.8229082 80.652226,85 82.101004,85 C83.6541918,85 84.9135918,83.7421273 84.9186323,82.1863754 L85,57.5446213 C85,40.3231618 69.2211375,26.793097 51.3540762,30.6669697 C42.0551107,32.6828837 32.6790979,42.0750957 30.6657862,51.3901332 C27.0402409,68.1680194 38.6859099,83.107421 54.3229189,84.9091216 C56.0158001,85.1031398 57.4998614,83.7738627 57.4998614,82.0666467 C57.4998614,80.7128469 56.4816844,79.5761454 55.1380365,79.4326152"/>
  </g>
</svg>
