<svg xmlns="http://www.w3.org/2000/svg" xmlns:xlink="http://www.w3.org/1999/xlink" width="115" height="115" viewBox="0 0 115 115">
  <defs>
    <polygon id="group-2-a" points="0 0 53 0 53 80 0 80"/>
  </defs>
  <g fill="none" fill-rule="evenodd">
    <circle cx="57.5" cy="57.5" r="57.5" fill="#FFF"/>
    <g transform="translate(31 17)">
      <mask id="group-2-b" fill="#fff">
        <use xlink:href="#group-2-a"/>
      </mask>
      <path fill="#010202" d="M48.4678922,66.8086585 C44.2914937,67.0176003 40.6491489,62.1103966 40.3100982,55.8362839 C38.486476,52.1397711 33.3811179,53.9763111 33.3811179,53.9763111 C31.6986035,59.4927657 27.8249987,63.3533075 23.3164089,63.3533075 C17.2615129,63.3533075 12.3678164,58.5369057 12.3678164,49.9556457 C12.3678164,41.3734093 17.2752317,34.415842 23.3291478,34.415842 C29.3428874,34.415842 34.2130659,39.1394893 34.2767604,47.6445929 C34.2777403,47.7002457 34.2777403,47.7568747 34.2777403,47.8135038 C34.2777403,47.8135038 38.8843216,46.1312293 41.1655642,49.6353984 C42.3483218,46.3626275 44.6148657,44.1150384 47.3194316,43.9803002 C48.3032665,43.9305056 49.255744,44.1687384 50.1435472,44.6373929 C49.3311975,43.1171947 48.6648552,42.6270602 48.6648552,42.6270602 C47.5800891,41.7698129 46.4757246,40.9731002 45.3645008,40.2330165 C46.0994372,19.1855455 32.2395167,14.2158546 32.2395167,14.2158546 C42.7902636,21.7016346 38.5472308,36.3695456 38.5472308,36.3695456 C34.0719581,33.825142 33.2449097,34.0047929 29.6897773,32.904431 C29.6897773,32.904431 21.5888184,2.60786728 1.74651564,0 C1.74651564,0 18.0033087,5.54867457 19.8298706,30.8696892 C19.8661275,30.8696892 19.6848432,30.8579729 19.8298706,30.8696892 C16.9812572,30.7290929 11.7004942,30.960491 9.33987848,34.4441565 C6.10321859,39.2224802 1.00667966,53.4383348 1.00667966,53.4383348 C1.00667966,53.4383348 -2.11043057,61.7403548 2.62549957,65.6829112 C7.3614297,69.6244912 25.7054422,78.2848367 25.7054422,78.2848367 C25.7054422,78.2848367 31.0401005,80.7345331 34.3972899,79.7786731 C37.504601,78.8940876 45.7476476,74.8372967 50.8549656,69.6430421 C51.8309612,68.652033 52.5649177,67.4354839 52.8569324,66.0773621 C52.9431649,65.6711948 52.9960803,65.2494057 52.9804017,64.8461676 C52.9892209,64.6167221 52.9931406,64.3999694 53,64.1754057 C51.7907846,65.7424694 50.2219404,66.7207857 48.4678922,66.8086585" mask="url(#group-2-b)"/>
    </g>
  </g>
</svg>
