<svg xmlns="http://www.w3.org/2000/svg" width="289" height="289" viewBox="0 0 289 289"><g fill="#FFF"><path d="M144.2 0C64.7 0 0 64.7 0 144.2c0 79.5 64.7 144.2 144.2 144.2 79.5 0 144.2-64.7 144.2-144.2C288.5 64.7 223.7 0 144.2 0zm0 283.4C67.4 283.4 5 221 5 144.2 5 67.4 67.4 5 144.2 5 221 5 283.4 67.5 283.4 144.2c.1 76.8-62.4 139.2-139.2 139.2z"/><path d="M70.1 150.5c-.5-.9-1.1-1.7-1.8-2.3-.7-.6-1.4-1.1-2.2-1.4-.8-.3-1.5-.5-2.2-.6l-.6 3.4c.4.1.9.2 1.3.4.5.2.9.5 1.3.8.4.4.8.8 1.1 1.4.3.6.5 1.2.6 2 .1.7.1 1.4-.1 2.1-.2.7-.5 1.3-.9 1.9-.4.6-1 1.1-1.7 1.5-.7.4-1.5.7-2.5.8-1 .1-1.9.1-2.7-.1-.8-.2-1.5-.6-2-1-.6-.5-1-1-1.3-1.6-.3-.6-.5-1.3-.6-1.9-.1-.8-.1-1.5.1-2.1.1-.6.4-1.1.6-1.6.3-.4.6-.8 1-1.1.4-.3.8-.5 1.2-.7l-1.5-3.1c-.7.3-1.4.7-2 1.2-.7.5-1.2 1.1-1.7 1.9-.5.7-.8 1.6-1 2.6-.2 1-.3 2.1-.1 3.3.2 1.2.5 2.3 1.1 3.4.6 1 1.3 1.9 2.2 2.7.9.7 2 1.3 3.2 1.6 1.2.3 2.5.4 4 .2 1.4-.2 2.7-.6 3.8-1.2 1.1-.6 2-1.4 2.7-2.4.7-.9 1.2-2 1.5-3.2.3-1.2.4-2.4.2-3.6-.1-1.3-.5-2.4-1-3.3zm-8-21.6c-.8-.8-1.9-1.2-3.1-1.4-.8-.1-1.5 0-2.2.2-.7.2-1.3.5-1.9 1-.5.4-1 1-1.4 1.7-.4.7-.6 1.4-.7 2.3l-.8 7 17.9 1.9.4-3.5-6.9-.7.2-1.8 7.3-2.8.4-3.9-7.8 3c-.1-1.3-.6-2.3-1.4-3zm-1.4 5.2l-.3 2.8-5-.5.3-2.8c.1-.9.4-1.6.9-2 .5-.4 1.1-.6 1.9-.5.7.1 1.3.4 1.7.9.5.5.6 1.2.5 2.1zM70.4 120.4l-4-1.3 2.2-6.7-3-1-2.2 6.7-3.9-1.3 2.4-7.4-3.1-1-3.5 10.7 17.1 5.6 3.5-10.7-3.1-1zM64.9 96.1l11.9 15.2 1.9-3.2-2.8-3.4 3.8-6.3 4.3.8 2-3.3-19-3.4-2.1 3.6zm11.5 1.7l-2.6 4.3-4.6-5.6 7.2 1.3zM85.6 75l-2.5-2.3-10.1 11 2.4 2.2 3.9-4.1 10.8 10 2.4-2.6-10.8-10zM99.504 82.782l-10.97-14.273 2.855-2.194 10.97 14.273zM108.4 56.1l2 14.1-10.3-9.7-3.4 1.7 14.2 13 3.2-1.7-2.4-19.1zM134.3 66.5l-.9-3.2-7.5 2.1-1.1-4.1 6.8-1.8-.8-3-6.8 1.8-1.1-4 7.5-2-.8-3.2-10.9 2.9 4.7 17.5zM160.7 64.3c.7-.5 1.3-1.2 1.8-1.9s.8-1.4 1-2.1l-3.2-1.2c-.1.4-.4.8-.6 1.2-.3.4-.6.8-1.1 1.1-.4.3-.9.6-1.5.8-.6.2-1.3.3-2 .2-.7 0-1.4-.2-2.1-.5-.7-.3-1.2-.7-1.7-1.3-.5-.5-.9-1.2-1.1-1.9-.2-.7-.4-1.6-.3-2.6.1-1 .3-1.9.7-2.6.4-.7.8-1.3 1.4-1.8.6-.5 1.2-.8 1.9-1 .7-.2 1.4-.3 2-.2.8.1 1.4.2 2 .5.6.3 1 .6 1.4.9.4.4.7.8.9 1.2.2.5.3.9.4 1.3l3.4-.8c-.1-.7-.4-1.5-.8-2.2-.4-.7-.9-1.4-1.5-2-.6-.6-1.4-1.1-2.3-1.5-.9-.4-2-.7-3.3-.7-1.2-.1-2.4.1-3.5.4-1.1.4-2.2.9-3.1 1.7-.9.8-1.6 1.7-2.2 2.8-.6 1.1-.9 2.4-1 3.8-.1 1.4.1 2.7.5 3.9.4 1.2 1 2.2 1.8 3.1.8.9 1.7 1.6 2.8 2.1 1.1.5 2.3.8 3.5.9 1.3.1 2.4 0 3.4-.3.8-.3 1.7-.8 2.4-1.3zM179 67.4l-7.7-2.3 4.3-14.1-3.4-1-5.2 17.3 11.1 3.3zM184.9 73.9c.6.7 1.3 1.2 2.2 1.7.8.5 1.7.8 2.6.9.9.2 1.7.1 2.6-.1.8-.2 1.6-.6 2.3-1.2.7-.6 1.4-1.3 1.9-2.3l5.6-10.2L199 61l-5.5 10c-.6 1-1.3 1.7-2.1 1.9-.8.2-1.7.1-2.6-.4-.9-.5-1.5-1.2-1.7-2-.2-.8-.1-1.8.5-2.8l5.5-10L190 56l-5.6 10.2c-.5 1-.8 1.9-.9 2.8-.1.9 0 1.8.3 2.6.1.9.5 1.7 1.1 2.3zm17.6 12.4c.6.6 1.3 1 2 1.3.7.3 1.4.4 2 .4.7 0 1.3-.2 1.9-.4.6-.3 1.2-.7 1.6-1.2.4-.4.7-.9.8-1.3.2-.5.3-.9.3-1.4 0-.5 0-.9-.1-1.4-.1-.4-.3-.9-.6-1.2.7.3 1.5.4 2.4.2.8-.2 1.6-.6 2.2-1.3.5-.5.8-1.1 1-1.7.2-.6.3-1.2.2-1.9-.1-.6-.3-1.3-.6-1.9-.3-.6-.8-1.2-1.5-1.8l-4.8-4.3-12 13.5 5.2 4.4zm7.5-13.6l1.8 1.6c.6.6 1 1.2 1.1 1.7.1.6-.1 1.1-.6 1.7-.5.5-1 .8-1.6.8-.6 0-1.2-.3-1.8-.8L207 76l3-3.3zm-2.8 7.4c.7.6 1 1.2 1 1.8 0 .6-.2 1.2-.7 1.7-.5.5-1 .8-1.7.8-.6 0-1.3-.3-1.9-.9l-2.1-1.9 3.2-3.5 2.2 2z"/></g></svg>