<svg xmlns="http://www.w3.org/2000/svg" width="115" height="115" viewBox="0 0 115 115"><g fill="none" fill-rule="evenodd"><circle cx="57.5" cy="57.5" r="57.5" fill="#FFF"/><path fill="#1A1919" d="M55.138 79.433C44.01 78.242 35.366 68.73 35.526 57.232c.164-11.857 9.824-21.534 21.661-21.697 12.28-.172 22.29 9.748 22.29 22.01v24.827A2.627 2.627 0 0 0 82.101 85a2.82 2.82 0 0 0 2.818-2.814L85 57.545c0-17.222-15.779-30.752-33.646-26.878-9.299 2.016-18.675 11.408-20.688 20.723-3.626 16.778 8.02 31.717 23.657 33.52a2.857 2.857 0 0 0 3.177-2.843 2.646 2.646 0 0 0-2.362-2.634"/></g></svg>