<svg xmlns="http://www.w3.org/2000/svg" width="115" height="115" viewBox="0 0 115 115"><g fill="none" fill-rule="evenodd"><circle cx="57.5" cy="57.5" r="57.5" fill="#FFF"/><path fill="#000" d="M83.848 80.978c1.23.089 2.254.608 3.073 1.559.798.926 1.153 2.009 1.066 3.247-.088 1.239-.604 2.272-1.547 3.096-.945.827-2.032 1.195-3.262 1.108-1.228-.089-2.242-.595-3.04-1.522-.819-.95-1.185-2.046-1.099-3.284.088-1.24.602-2.27 1.548-3.097.943-.825 2.031-1.194 3.26-1.107m-24.82-54.942c7.855.373 14.317 3.5 19.383 9.381 4.679 5.432 6.863 11.836 6.554 19.214-.327 7.307-3.035 13.644-8.121 19.012l2.684 3.116-4.025 3.519-6.107-7.166 1.789-1.564c4.919-4.3 7.66-9.613 8.22-15.94.61-6.368-1.099-11.894-5.13-16.574-4.032-4.68-9.209-7.175-15.53-7.486-6.32-.31-11.953 1.697-16.896 6.018-4.896 4.28-7.658 9.591-8.29 15.935-.586 6.349 1.105 11.802 5.076 16.36l-.005.07.065.075-4.137 3.616-.065-.075.005-.07c-4.94-5.685-7.063-12.472-6.369-20.363.715-7.865 4.093-14.437 10.13-19.715 6.037-5.278 12.96-7.731 20.77-7.363"/></g></svg>