<svg width="115" height="115" viewBox="0 0 115 115" xmlns="http://www.w3.org/2000/svg"><title>group-1</title><g fill="none" fill-rule="evenodd"><circle fill="#FFF" cx="57.5" cy="57.5" r="57.5"/><path d="M62.97 28h3.518c.6.072 1.205.064 1.806.127 2.92.23 5.835.748 8.598 1.748 1.849.62 3.635 1.453 5.251 2.554a17.018 17.018 0 0 1 4.2 4.035c1.145 1.563 2.008 3.328 2.593 5.177.647 2.027.966 4.15 1.058 6.275.01.892.005 1.785.003 2.679-.233 7.955-3.217 15.765-8.191 21.936-1.353 1.693-2.878 3.237-4.485 4.685a39.88 39.88 0 0 1-5.534 4.151 45.596 45.596 0 0 1-9.18 4.384c-3.102 1.068-6.324 1.825-9.597 2.083-3.779.307-7.654-.027-11.23-1.35-2.181-.793-4.226-1.92-6.166-3.189-.827-.517-1.586-1.132-2.349-1.738-1.85-1.504-3.605-3.166-4.97-5.137-1.14-1.642-1.975-3.531-2.218-5.531a14.007 14.007 0 0 0-.077-.665v-1.581a15 15 0 0 1 .391-2.29c.555-2.162 1.51-4.192 2.512-6.175 1.625-3.193 3.44-6.296 4.796-9.62 1.55-3.024 2.665-6.25 4.2-9.28.92-1.806 2.008-3.537 3.366-5.044 1.38-1.55 3.027-2.85 4.81-3.898 2.06-1.251 4.33-2.118 6.64-2.77 2.865-.798 5.817-1.26 8.78-1.466.49-.05.986-.028 1.474-.1z" fill="#000" fill-rule="nonzero"/></g></svg>