<svg xmlns="http://www.w3.org/2000/svg" xmlns:xlink="http://www.w3.org/1999/xlink" width="115" height="115" viewBox="0 0 115 115"><defs><path id="a" d="M0 0h53v80H0z"/></defs><g fill="none" fill-rule="evenodd"><circle cx="57.5" cy="57.5" r="57.5" fill="#FFF"/><g transform="translate(31 17)"><mask id="b" fill="#fff"><use xlink:href="#a"/></mask><path fill="#010202" d="M48.468 66.809c-4.177.209-7.819-4.699-8.158-10.973-1.824-3.696-6.929-1.86-6.929-1.86-1.682 5.517-5.556 9.377-10.065 9.377-6.054 0-10.948-4.816-10.948-13.397 0-8.583 4.907-15.54 10.961-15.54 6.014 0 10.884 4.723 10.948 13.229v.169s4.607-1.683 6.889 1.821c1.182-3.272 3.449-5.52 6.153-5.655.984-.05 1.937.189 2.825.657-.813-1.52-1.48-2.01-1.48-2.01a50.221 50.221 0 0 0-3.3-2.394C46.1 19.186 32.24 14.216 32.24 14.216c10.55 7.486 6.307 22.154 6.307 22.154-4.475-2.545-5.302-2.365-8.857-3.466 0 0-8.101-30.296-27.943-32.904 0 0 16.256 5.549 18.083 30.87.036 0-.145-.012 0 0-2.849-.14-8.13.09-10.49 3.574-3.237 4.778-8.333 18.994-8.333 18.994S-2.11 61.74 2.625 65.683c4.736 3.941 23.08 12.602 23.08 12.602s5.335 2.45 8.692 1.494c3.108-.885 11.35-4.942 16.458-10.136.976-.991 1.71-2.208 2.002-3.566.086-.406.14-.828.123-1.23.01-.23.013-.447.02-.672-1.21 1.567-2.778 2.546-4.532 2.634" mask="url(#b)"/></g></g></svg>